# xmcd
#
# Track frame offsets: 
#        150
#        12523
#        24527
#        35949
#        50645
#        62193
#        73448
#        87446
#        99203
#        114718
#        130838
#        145731
#        161675
#        177143
#        194406
#        211466
#        227902
#        241615
#        254878
#        268456
#        286857
#        304497
#        325981
#
# Disc length: 4737 seconds
#
# Revision: 0
# Processed by: cddbd v1.5.2PL0 Copyright (c) Steve Scherf et al.
# Submitted via: ExactAudioCopy v0.95b4
#
DISCID=6d127f17
DTITLE=Bobby Bland - The Best Of Boby Bland
DYEAR=1960
DGENRE=Soul
TTITLE0=Cry, Cry, Cry
TTITLE1=I Pity The Fool
TTITLE2=Turn On Your Lovelight
TTITLE3=Stormy Monday
TTITLE4=That's The Way Love Is
TTITLE5=Ain't Nothing You Can Do
TTITLE6=I'm Too Far Gone
TTITLE7=Goodtime Charlie
TTITLE8=That Did It
TTITLE9=Rockin' In The Same Old Boat
TTITLE10=Chains Of Love
TTITLE11=Do What You Set Out To Do
TTITLE12=This Time I'm Gone For Good
TTITLE13=It Ain't The Spotlight
TTITLE14=Ain't No Love In The Heart Of The City
TTITLE15=Yolanda
TTITLE16=Love To See You Smile
TTITLE17=Soon As The Wether Breaks
TTITLE18=You'd Be A Millionaire
TTITLE19=Just Because I Leave
TTITLE20=Bonus 1
TTITLE21=Bonus 2
TTITLE22=Bonus 3
EXTD=
EXTT0=
EXTT1=
EXTT2=
EXTT3=
EXTT4=
EXTT5=
EXTT6=
EXTT7=
EXTT8=
EXTT9=
EXTT10=
EXTT11=
EXTT12=
EXTT13=
EXTT14=
EXTT15=
EXTT16=
EXTT17=
EXTT18=
EXTT19=
EXTT20=
EXTT21=
EXTT22=
PLAYORDER=
